# xmcd
#
# Track frame offsets:
#	150
#	29077
#	52561
#	79095
#	97275
#	119079
#	136770
#	153493
#	169985
#	194166
#	219903
#	236894
#	260042
#
# Disc length: 3661 seconds
#
# Revision: 0
# Processed by: cddbd v1.5.2PL0 Copyright (c) Steve Scherf et al.
# Submitted via: EZCDAudioConverter 2.1.7.1
#
DISCID=c30e4b0d
DTITLE=Spooky Tooth - The Last Puff
DYEAR=1900
DGENRE=
TTITLE0=I Am The Walrus
TTITLE1=The Wrong Time
TTITLE2=Something To Say
TTITLE3=Nobody There At All
TTITLE4=Down River
TTITLE5=Son Of Your Father
TTITLE6=The Last Puff
TTITLE7=Son Of Your Father [Single]
TTITLE8=I Am The Walrus [Single]
TTITLE9=Hangman, Hang My Shell On A Tree [Single]
TTITLE10=Nobody There At All [Single]
TTITLE11=The Wrong Time [First Mix]
TTITLE12=The Weight
EXTD=
EXTT0=
EXTT1=
EXTT2=
EXTT3=
EXTT4=
EXTT5=
EXTT6=
EXTT7=
EXTT8=
EXTT9=
EXTT10=
EXTT11=
EXTT12=
PLAYORDER=
